<svg class="main-svg" xmlns="http://www.w3.org/2000/svg" xmlns:xlink="http://www.w3.org/1999/xlink" width="700" height="500" style="" viewBox="0 0 700 500"><rect x="0" y="0" width="700" height="500" style="fill: rgb(17, 17, 17); fill-opacity: 1;"/><defs id="defs-267daf"><g class="clips"><clipPath id="clip267dafxyplot" class="plotclip"><rect width="540" height="360"/></clipPath><clipPath class="axesclip" id="clip267dafx"><rect x="80" y="0" width="540" height="500"/></clipPath><clipPath class="axesclip" id="clip267dafy"><rect x="0" y="60" width="700" height="360"/></clipPath><clipPath class="axesclip" id="clip267dafxy"><rect x="80" y="60" width="540" height="360"/></clipPath></g><g class="gradients"/><g class="patterns"/></defs><g class="bglayer"/><g class="layer-below"><g class="imagelayer"/><g class="shapelayer"/></g><g class="cartesianlayer"><g class="subplot xy"><g class="layer-subplot"><g class="shapelayer"/><g class="imagelayer"/></g><g class="minor-gridlayer"><g class="x"/><g class="y"/></g><g class="gridlayer"><g class="x"><path class="xgrid crisp" transform="translate(137.72,0)" d="M0,60v360" style="stroke: rgb(40, 52, 66); stroke-opacity: 1; stroke-width: 1px;"/><path class="xgrid crisp" transform="translate(276.7,0)" d="M0,60v360" style="stroke: rgb(40, 52, 66); stroke-opacity: 1; stroke-width: 1px;"/><path class="xgrid crisp" transform="translate(415.88,0)" d="M0,60v360" style="stroke: rgb(40, 52, 66); stroke-opacity: 1; stroke-width: 1px;"/><path class="xgrid crisp" transform="translate(554.86,0)" d="M0,60v360" style="stroke: rgb(40, 52, 66); stroke-opacity: 1; stroke-width: 1px;"/></g><g class="y"><path class="ygrid crisp" transform="translate(0,371.83)" d="M80,0h540" style="stroke: rgb(40, 52, 66); stroke-opacity: 1; stroke-width: 1px;"/><path class="ygrid crisp" transform="translate(0,323.66)" d="M80,0h540" style="stroke: rgb(40, 52, 66); stroke-opacity: 1; stroke-width: 1px;"/><path class="ygrid crisp" transform="translate(0,275.49)" d="M80,0h540" style="stroke: rgb(40, 52, 66); stroke-opacity: 1; stroke-width: 1px;"/><path class="ygrid crisp" transform="translate(0,227.32)" d="M80,0h540" style="stroke: rgb(40, 52, 66); stroke-opacity: 1; stroke-width: 1px;"/><path class="ygrid crisp" transform="translate(0,179.15)" d="M80,0h540" style="stroke: rgb(40, 52, 66); stroke-opacity: 1; stroke-width: 1px;"/><path class="ygrid crisp" transform="translate(0,130.99)" d="M80,0h540" style="stroke: rgb(40, 52, 66); stroke-opacity: 1; stroke-width: 1px;"/><path class="ygrid crisp" transform="translate(0,82.82)" d="M80,0h540" style="stroke: rgb(40, 52, 66); stroke-opacity: 1; stroke-width: 1px;"/></g></g><g class="zerolinelayer"><path class="yzl zl crisp" transform="translate(0,420)" d="M80,0h540" style="stroke: rgb(40, 52, 66); stroke-opacity: 1; stroke-width: 2px;"/></g><g class="layer-between"><g class="shapelayer"/><g class="imagelayer"/></g><path class="xlines-below"/><path class="ylines-below"/><g class="overlines-below"/><g class="xaxislayer-below"/><g class="yaxislayer-below"/><g class="overaxes-below"/><g class="overplot"><g class="xy" transform="translate(80,60)" clip-path="url(#clip267dafxyplot)"><g class="scatterlayer mlayer"><g class="trace scatter trace3b80c4" style="stroke-miterlimit: 2;"><g class="fills"><g><path class="js-fill" d="M540,360L0,360L0,360L0.2,321.46L0.2,360L0.77,355.18L2.14,360L2.87,355.18L4.21,360L4.78,360L8.21,360L8.39,357.59L8.74,360L9.48,360L9.54,355.18L10.09,360L10.5,360L10.87,357.59L11.47,360L11.84,357.59L12.22,360L12.8,360L13.55,360L14.12,357.59L14.33,352.77L14.66,360L14.89,357.59L16.23,360L16.8,360L17.56,350.37L18.13,360L18.9,360L19.46,357.59L20.23,357.59L20.79,360L21.93,352.77L22.04,360L22.81,360L23.31,355.18L25.47,360L26.05,360L26.8,360L27.32,357.59L28.14,355.18L28.71,360L29.47,360L30.05,355.18L31.37,360L32.14,360L32.55,355.18L32.64,360L33.46,357.59L34.03,347.96L34.8,355.18L36.12,360L36.7,360L37.41,355.18L38.04,357.59L38.8,357.59L39.38,360L39.57,350.37L40.12,360L40.7,352.77L42.03,360L42.79,350.37L43.37,345.55L44.12,331.1L45,357.59L45.46,352.77L46.73,352.77L47.3,360L47.75,350.37L47.93,323.87L48.71,357.59L49.4,360L50.74,360L51.32,357.59L52.64,357.59L53.42,360L53.98,360L54.73,347.96L55.31,360L56.07,355.18L56.44,352.77L56.65,355.18L57.41,360L59.31,360L60.09,357.59L60.65,357.59L61.4,347.96L61.98,234.76L62.74,345.55L63.3,360L63.68,343.14L64.06,355.18L64.64,347.96L65.39,352.77L65.97,335.92L66.75,357.59L67.33,355.18L67.33,352.77L68.07,331.1L68.64,345.55L69.02,355.18L69.4,345.55L70.01,360L70.01,347.96L70.74,350.37L71.3,357.59L72.06,328.69L73.39,360L73.98,355.18L73.98,360L74.75,345.55L75.32,345.55L76.06,357.59L76.64,338.32L77.41,355.18L77.98,360L78.75,338.32L79.31,360L80.07,350.37L80.62,338.32L80.62,352.77L81.42,360L81.42,292.56L81.98,360L82.73,360L83.3,335.92L83.67,352.77L84.07,340.73L84.64,352.77L85.39,355.18L85.98,360L86.75,360L86.75,360L87.31,352.77L88.07,352.77L88.63,338.32L89.42,345.55L89.98,360L90.72,333.51L91.31,345.55L91.88,355.18L93.4,350.37L93.96,360L94.75,338.32L95.3,360L96.09,360L96.65,331.1L97.18,333.51L97.41,352.77L98,302.2L98.76,309.42L99.31,347.96L100.66,357.59L101.44,357.59L102,340.73L102.73,360L103.32,355.18L104.08,314.24L104.08,343.14L104.66,328.69L105.41,355.18L105.99,321.46L106.76,347.96L107.32,340.73L108.1,350.37L109.43,352.77L110,360L110.74,357.59L111.32,347.96L112.07,360L112.67,321.46L113.41,352.77L113.99,326.28L114.77,331.1L115.33,357.59L115.69,239.58L116.09,360L117.34,352.77L117.92,323.87L119.26,350.37L120.03,345.55L120.62,360L121.38,357.59L121.96,343.14L122.32,360L123.28,352.77L124.07,350.37L125.41,302.2L125.98,338.32L126.87,357.59L128.66,311.83L129.43,328.69L129.99,357.59L130.76,360L131.31,319.06L132.1,282.93L132.66,352.77L133.42,335.92L133.98,350.37L134.77,355.18L135.34,343.14L136.1,360L136.1,335.92L137.89,307.01L138.77,357.59L141.97,328.69L142.78,345.55L143.34,352.77L144.09,343.14L145.35,355.18L145.96,345.55L146.71,335.92L147.27,350.37L148.61,309.42L149.41,352.77L149.96,352.77L150.75,294.97L152.09,340.73L152.62,307.01L153.37,347.96L153.98,266.07L155.31,357.59L156.09,345.55L156.61,160.1L157.41,198.63L158.75,360L159.32,352.77L160.05,343.14L160.62,355.18L161.38,357.59L161.99,352.77L164.06,350.37L164.64,270.89L166,355.18L166.74,350.37L167.32,355.18L168.1,347.96L168.61,352.77L169.41,328.69L169.95,352.77L170.74,290.15L171.31,282.93L172.09,352.77L172.64,323.87L173.41,347.96L173.88,350.37L174.68,292.56L176.11,357.59L176.68,335.92L177.99,360L181.43,347.96L182,343.14L182.75,345.55L183.34,350.37L184.1,319.06L184.67,297.38L185.43,345.55L186.01,347.96L186.78,355.18L187.34,355.18L188.11,225.13L188.65,131.2L189.45,208.27L190.79,360L191.36,319.06L192.12,299.79L192.71,355.18L193.47,340.73L194.04,299.79L194.82,268.48L195.39,335.92L196.15,321.46L196.72,328.69L200.13,360L200.71,357.59L201.48,297.38L202.06,328.69L202.23,360L202.79,345.55L203.2,355.18L204.17,357.59L204.7,331.1L205.47,331.1L206.04,345.55L206.81,338.32L207.39,304.61L208.16,314.24L208.56,333.51L208.92,360L209.35,357.59L209.54,307.01L209.66,350.37L210.82,357.59L211.37,225.13L212.1,328.69L212.55,311.83L213.46,237.17L213.99,338.32L216.14,345.55L216.71,311.83L217.48,350.37L218.79,343.14L219.41,331.1L220.13,340.73L220.71,316.65L222.05,360L224.13,340.73L224.71,347.96L225.47,307.01L226.03,331.1L226.81,309.42L227.36,350.37L228.14,18L230.05,357.59L230.84,299.79L231.38,360L232.14,307.01L232.7,347.96L233.49,314.24L234.81,333.51L236.7,343.14L238.8,360L238.98,345.55L239.17,340.73L239.36,360L239.59,340.73L239.74,343.14L243.36,343.14L244.13,343.14L244.7,347.96L246.04,270.89L246.79,331.1L247.36,338.32L249.47,326.28L250.04,319.06L250.81,347.96L251.39,350.37L252.13,338.32L252.66,321.46L253.44,333.51L255.38,294.97L256.12,333.51L256.69,357.59L257.47,307.01L258.05,316.65L258.8,350.37L259.36,355.18L261.48,360L262.04,290.15L262.81,316.65L264.74,360L264.74,357.59L268.12,340.73L268.71,338.32L269.47,357.59L270.04,347.96L270.79,350.37L271.4,18L273.49,352.77L274.04,280.52L274.82,357.59L275.39,307.01L276.13,333.51L276.72,328.69L278.95,360L279.38,138.42L280.15,360L281.48,280.52L283.33,251.62L284.13,285.34L284.13,254.03L285.41,343.14L285.98,338.32L288.1,241.99L289.98,357.59L291.32,347.96L292.66,355.18L294.77,326.28L295.35,350.37L296.13,331.1L296.55,328.69L297.36,338.32L298.71,328.69L299.31,285.34L299.92,350.37L303.29,355.18L304.1,352.77L304.65,316.65L305.43,331.1L306.01,268.48L306.77,347.96L307.34,333.51L309.44,345.55L309.98,350.37L310.78,299.79L311.29,350.37L312.08,205.86L313.4,357.59L315.35,345.55L316.66,285.34L317.46,360L317.47,355.18L318.79,333.51L319.33,352.77L321.98,352.77L322.78,326.28L323.32,343.14L326.78,311.83L327.36,345.55L328.13,176.96L329.98,340.73L331.32,357.59L332.1,340.73L332.66,333.51L334,340.73L334.79,326.28L335.33,222.72L338.74,145.65L339.32,193.82L340.09,32.45L341.42,347.96L343.33,302.2L344.13,328.69L344.68,328.69L345.42,333.51L346.01,343.14L346.76,314.24L349.25,345.55L349.44,309.42L350.39,357.59L352.1,338.32L352.68,309.42L354.74,321.46L355.31,347.96L356.07,294.97L357.85,352.77L357.85,347.96L359.18,347.96L359.18,319.06L359.18,360L365.03,352.77L365.93,345.55L366.67,360L368,338.32L369.95,340.73L370.68,343.14L371.28,340.73L372.06,314.24L372.61,355.18L373.4,335.92L373.95,357.59L376.05,350.37L377.32,335.92L380.61,352.77L381.38,350.37L382.73,335.92L383.27,229.94L384.04,162.51L385.95,357.59L387.29,335.92L388.06,328.69L388.62,355.18L389.38,350.37L390.71,333.51L392.63,338.32L393.39,352.77L393.96,328.69L395.3,345.55L396.07,319.06L398.73,345.55L399.27,335.92L400.05,352.77L400.62,340.73L401.39,360L401.95,357.59L402.72,360L404.05,355.18L408.61,360L409.39,350.37L409.93,355.18L410.71,350.37L411.27,335.92L412.03,350.37L413.97,319.06L416.62,258.85L416.62,222.72L417.38,357.59L417.96,333.51L418.72,355.18L419.29,347.96L420.03,352.77L421.95,328.69L422.68,352.77L424.03,350.37L424.63,345.55L425.38,338.32L428.05,328.69L434.7,294.97L435.06,355.18L435.26,343.14L435.45,360L435.83,360L436.02,340.73L436.59,360L437.01,355.18L439.23,343.14L440,360L440.54,314.24L441.93,360L442.71,355.18L451.27,357.59L451.27,326.28L453.33,355.18L453.91,333.51L454.71,294.97L457.91,360L460.02,357.59L460.52,345.55L461.3,355.18L461.86,352.77L462.64,350.37L466.68,357.59L467.26,326.28L468.01,347.96L468.01,355.18L468.57,355.18L469.95,335.92L469.95,355.18L473.3,350.37L473.3,311.83L473.3,360L481.33,345.55L481.91,352.77L482.67,338.32L483.24,345.55L484,198.63L484.58,357.59L487.27,355.18L488.02,347.96L488.6,360L489.91,355.18L489.91,357.59L490.68,350.37L493.29,347.96L493.29,360L494.6,309.42L497.3,314.24L497.3,352.77L498.65,347.96L499.98,357.59L501.32,352.77L504,350.37L505.13,307.01L505.31,338.32L506.67,355.18L509.34,335.92L510.86,316.65L513.32,352.77L514.67,343.14L515.43,360L515.63,360L515.79,357.59L515.98,360L517.31,360L518.65,360L521.32,352.77L522.66,355.18L526.65,343.14L528.01,302.2L528.01,321.46L529.31,343.14L531.96,360L533.33,350.37L534.66,360L535.26,357.59L535.96,360L537.3,360L538.65,357.59L540,347.96" style="fill: rgb(99, 110, 250); fill-opacity: 0.5; stroke-width: 0;"/></g></g><g class="errorbars"/><g class="lines"><path class="js-line" d="M0,360L0.2,321.46L0.2,360L0.77,355.18L2.14,360L2.87,355.18L4.21,360L4.78,360L8.21,360L8.39,357.59L8.74,360L9.48,360L9.54,355.18L10.09,360L10.5,360L10.87,357.59L11.47,360L11.84,357.59L12.22,360L12.8,360L13.55,360L14.12,357.59L14.33,352.77L14.66,360L14.89,357.59L16.23,360L16.8,360L17.56,350.37L18.13,360L18.9,360L19.46,357.59L20.23,357.59L20.79,360L21.93,352.77L22.04,360L22.81,360L23.31,355.18L25.47,360L26.05,360L26.8,360L27.32,357.59L28.14,355.18L28.71,360L29.47,360L30.05,355.18L31.37,360L32.14,360L32.55,355.18L32.64,360L33.46,357.59L34.03,347.96L34.8,355.18L36.12,360L36.7,360L37.41,355.18L38.04,357.59L38.8,357.59L39.38,360L39.57,350.37L40.12,360L40.7,352.77L42.03,360L42.79,350.37L43.37,345.55L44.12,331.1L45,357.59L45.46,352.77L46.73,352.77L47.3,360L47.75,350.37L47.93,323.87L48.71,357.59L49.4,360L50.74,360L51.32,357.59L52.64,357.59L53.42,360L53.98,360L54.73,347.96L55.31,360L56.07,355.18L56.44,352.77L56.65,355.18L57.41,360L59.31,360L60.09,357.59L60.65,357.59L61.4,347.96L61.98,234.76L62.74,345.55L63.3,360L63.68,343.14L64.06,355.18L64.64,347.96L65.39,352.77L65.97,335.92L66.75,357.59L67.33,355.18L67.33,352.77L68.07,331.1L68.64,345.55L69.02,355.18L69.4,345.55L70.01,360L70.01,347.96L70.74,350.37L71.3,357.59L72.06,328.69L73.39,360L73.98,355.18L73.98,360L74.75,345.55L75.32,345.55L76.06,357.59L76.64,338.32L77.41,355.18L77.98,360L78.75,338.32L79.31,360L80.07,350.37L80.62,338.32L80.62,352.77L81.42,360L81.42,292.56L81.98,360L82.73,360L83.3,335.92L83.67,352.77L84.07,340.73L84.64,352.77L85.39,355.18L85.98,360L86.75,360L86.75,360L87.31,352.77L88.07,352.77L88.63,338.32L89.42,345.55L89.98,360L90.72,333.51L91.31,345.55L91.88,355.18L93.4,350.37L93.96,360L94.75,338.32L95.3,360L96.09,360L96.65,331.1L97.18,333.51L97.41,352.77L98,302.2L98.76,309.42L99.31,347.96L100.66,357.59L101.44,357.59L102,340.73L102.73,360L103.32,355.18L104.08,314.24L104.08,343.14L104.66,328.69L105.41,355.18L105.99,321.46L106.76,347.96L107.32,340.73L108.1,350.37L109.43,352.77L110,360L110.74,357.59L111.32,347.96L112.07,360L112.67,321.46L113.41,352.77L113.99,326.28L114.77,331.1L115.33,357.59L115.69,239.58L116.09,360L117.34,352.77L117.92,323.87L119.26,350.37L120.03,345.55L120.62,360L121.38,357.59L121.96,343.14L122.32,360L123.28,352.77L124.07,350.37L125.41,302.2L125.98,338.32L126.87,357.59L128.66,311.83L129.43,328.69L129.99,357.59L130.76,360L131.31,319.06L132.1,282.93L132.66,352.77L133.42,335.92L133.98,350.37L134.77,355.18L135.34,343.14L136.1,360L136.1,335.92L137.89,307.01L138.77,357.59L141.97,328.69L142.78,345.55L143.34,352.77L144.09,343.14L145.35,355.18L145.96,345.55L146.71,335.92L147.27,350.37L148.61,309.42L149.41,352.77L149.96,352.77L150.75,294.97L152.09,340.73L152.62,307.01L153.37,347.96L153.98,266.07L155.31,357.59L156.09,345.55L156.61,160.1L157.41,198.63L158.75,360L159.32,352.77L160.05,343.14L160.62,355.18L161.38,357.59L161.99,352.77L164.06,350.37L164.64,270.89L166,355.18L166.74,350.37L167.32,355.18L168.1,347.96L168.61,352.77L169.41,328.69L169.95,352.77L170.74,290.15L171.31,282.93L172.09,352.77L172.64,323.87L173.41,347.96L173.88,350.37L174.68,292.56L176.11,357.59L176.68,335.92L177.99,360L181.43,347.96L182,343.14L182.75,345.55L183.34,350.37L184.1,319.06L184.67,297.38L185.43,345.55L186.01,347.96L186.78,355.18L187.34,355.18L188.11,225.13L188.65,131.2L189.45,208.27L190.79,360L191.36,319.06L192.12,299.79L192.71,355.18L193.47,340.73L194.04,299.79L194.82,268.48L195.39,335.92L196.15,321.46L196.72,328.69L200.13,360L200.71,357.59L201.48,297.38L202.06,328.69L202.23,360L202.79,345.55L203.2,355.18L204.17,357.59L204.7,331.1L205.47,331.1L206.04,345.55L206.81,338.32L207.39,304.61L208.16,314.24L208.56,333.51L208.92,360L209.35,357.59L209.54,307.01L209.66,350.37L210.82,357.59L211.37,225.13L212.1,328.69L212.55,311.83L213.46,237.17L213.99,338.32L216.14,345.55L216.71,311.83L217.48,350.37L218.79,343.14L219.41,331.1L220.13,340.73L220.71,316.65L222.05,360L224.13,340.73L224.71,347.96L225.47,307.01L226.03,331.1L226.81,309.42L227.36,350.37L228.14,18L230.05,357.59L230.84,299.79L231.38,360L232.14,307.01L232.7,347.96L233.49,314.24L234.81,333.51L236.7,343.14L238.8,360L238.98,345.55L239.17,340.73L239.36,360L239.59,340.73L239.74,343.14L243.36,343.14L244.13,343.14L244.7,347.96L246.04,270.89L246.79,331.1L247.36,338.32L249.47,326.28L250.04,319.06L250.81,347.96L251.39,350.37L252.13,338.32L252.66,321.46L253.44,333.51L255.38,294.97L256.12,333.51L256.69,357.59L257.47,307.01L258.05,316.65L258.8,350.37L259.36,355.18L261.48,360L262.04,290.15L262.81,316.65L264.74,360L264.74,357.59L268.12,340.73L268.71,338.32L269.47,357.59L270.04,347.96L270.79,350.37L271.4,18L273.49,352.77L274.04,280.52L274.82,357.59L275.39,307.01L276.13,333.51L276.72,328.69L278.95,360L279.38,138.42L280.15,360L281.48,280.52L283.33,251.62L284.13,285.34L284.13,254.03L285.41,343.14L285.98,338.32L288.1,241.99L289.98,357.59L291.32,347.96L292.66,355.18L294.77,326.28L295.35,350.37L296.13,331.1L296.55,328.69L297.36,338.32L298.71,328.69L299.31,285.34L299.92,350.37L303.29,355.18L304.1,352.77L304.65,316.65L305.43,331.1L306.01,268.48L306.77,347.96L307.34,333.51L309.44,345.55L309.98,350.37L310.78,299.79L311.29,350.37L312.08,205.86L313.4,357.59L315.35,345.55L316.66,285.34L317.46,360L317.47,355.18L318.79,333.51L319.33,352.77L321.98,352.77L322.78,326.28L323.32,343.14L326.78,311.83L327.36,345.55L328.13,176.96L329.98,340.73L331.32,357.59L332.1,340.73L332.66,333.51L334,340.73L334.79,326.28L335.33,222.72L338.74,145.65L339.32,193.82L340.09,32.45L341.42,347.96L343.33,302.2L344.13,328.69L344.68,328.69L345.42,333.51L346.01,343.14L346.76,314.24L349.25,345.55L349.44,309.42L350.39,357.59L352.1,338.32L352.68,309.42L354.74,321.46L355.31,347.96L356.07,294.97L357.85,352.77L357.85,347.96L359.18,347.96L359.18,319.06L359.18,360L365.03,352.77L365.93,345.55L366.67,360L368,338.32L369.95,340.73L370.68,343.14L371.28,340.73L372.06,314.24L372.61,355.18L373.4,335.92L373.95,357.59L376.05,350.37L377.32,335.92L380.61,352.77L381.38,350.37L382.73,335.92L383.27,229.94L384.04,162.51L385.95,357.59L387.29,335.92L388.06,328.69L388.62,355.18L389.38,350.37L390.71,333.51L392.63,338.32L393.39,352.77L393.96,328.69L395.3,345.55L396.07,319.06L398.73,345.55L399.27,335.92L400.05,352.77L400.62,340.73L401.39,360L401.95,357.59L402.72,360L404.05,355.18L408.61,360L409.39,350.37L409.93,355.18L410.71,350.37L411.27,335.92L412.03,350.37L413.97,319.06L416.62,258.85L416.62,222.72L417.38,357.59L417.96,333.51L418.72,355.18L419.29,347.96L420.03,352.77L421.95,328.69L422.68,352.77L424.03,350.37L424.63,345.55L425.38,338.32L428.05,328.69L434.7,294.97L435.06,355.18L435.26,343.14L435.45,360L435.83,360L436.02,340.73L436.59,360L437.01,355.18L439.23,343.14L440,360L440.54,314.24L441.93,360L442.71,355.18L451.27,357.59L451.27,326.28L453.33,355.18L453.91,333.51L454.71,294.97L457.91,360L460.02,357.59L460.52,345.55L461.3,355.18L461.86,352.77L462.64,350.37L466.68,357.59L467.26,326.28L468.01,347.96L468.01,355.18L468.57,355.18L469.95,335.92L469.95,355.18L473.3,350.37L473.3,311.83L473.3,360L481.33,345.55L481.91,352.77L482.67,338.32L483.24,345.55L484,198.63L484.58,357.59L487.27,355.18L488.02,347.96L488.6,360L489.91,355.18L489.91,357.59L490.68,350.37L493.29,347.96L493.29,360L494.6,309.42L497.3,314.24L497.3,352.77L498.65,347.96L499.98,357.59L501.32,352.77L504,350.37L505.13,307.01L505.31,338.32L506.67,355.18L509.34,335.92L510.86,316.65L513.32,352.77L514.67,343.14L515.43,360L515.63,360L515.79,357.59L515.98,360L517.31,360L518.65,360L521.32,352.77L522.66,355.18L526.65,343.14L528.01,302.2L528.01,321.46L529.31,343.14L531.96,360L533.33,350.37L534.66,360L535.26,357.59L535.96,360L537.3,360L538.65,357.59L540,347.96" style="vector-effect: none; fill: none; stroke: rgb(99, 110, 250); stroke-opacity: 1; stroke-width: 2px; opacity: 1;"/></g><g class="points"/><g class="text"/></g></g></g></g><path class="xlines-above crisp" d="M0,0" style="fill: none;"/><path class="ylines-above crisp" d="M0,0" style="fill: none;"/><g class="overlines-above"/><g class="xaxislayer-above"><g class="xtick"><text text-anchor="middle" x="0" y="447" transform="translate(137.72,0)" style="font-family: Hack, 'Courier New', mono; font-size: 16px; fill: rgb(242, 245, 250); fill-opacity: 1; white-space: pre; opacity: 1;">2018</text></g><g class="xtick"><text text-anchor="middle" x="0" y="447" style="font-family: Hack, 'Courier New', mono; font-size: 16px; fill: rgb(242, 245, 250); fill-opacity: 1; white-space: pre; opacity: 1;" transform="translate(276.7,0)">2020</text></g><g class="xtick"><text text-anchor="middle" x="0" y="447" style="font-family: Hack, 'Courier New', mono; font-size: 16px; fill: rgb(242, 245, 250); fill-opacity: 1; white-space: pre; opacity: 1;" transform="translate(415.88,0)">2022</text></g><g class="xtick"><text text-anchor="middle" x="0" y="447" style="font-family: Hack, 'Courier New', mono; font-size: 16px; fill: rgb(242, 245, 250); fill-opacity: 1; white-space: pre; opacity: 1;" transform="translate(554.86,0)">2024</text></g></g><g class="yaxislayer-above"><g class="ytick"><text text-anchor="end" x="69" y="5.6" transform="translate(0,420)" style="font-family: Hack, 'Courier New', mono; font-size: 16px; fill: rgb(242, 245, 250); fill-opacity: 1; white-space: pre; opacity: 1;">0</text></g><g class="ytick"><text text-anchor="end" x="69" y="5.6" style="font-family: Hack, 'Courier New', mono; font-size: 16px; fill: rgb(242, 245, 250); fill-opacity: 1; white-space: pre; opacity: 1;" transform="translate(0,371.83)">20</text></g><g class="ytick"><text text-anchor="end" x="69" y="5.6" style="font-family: Hack, 'Courier New', mono; font-size: 16px; fill: rgb(242, 245, 250); fill-opacity: 1; white-space: pre; opacity: 1;" transform="translate(0,323.66)">40</text></g><g class="ytick"><text text-anchor="end" x="69" y="5.6" style="font-family: Hack, 'Courier New', mono; font-size: 16px; fill: rgb(242, 245, 250); fill-opacity: 1; white-space: pre; opacity: 1;" transform="translate(0,275.49)">60</text></g><g class="ytick"><text text-anchor="end" x="69" y="5.6" style="font-family: Hack, 'Courier New', mono; font-size: 16px; fill: rgb(242, 245, 250); fill-opacity: 1; white-space: pre; opacity: 1;" transform="translate(0,227.32)">80</text></g><g class="ytick"><text text-anchor="end" x="69" y="5.6" style="font-family: Hack, 'Courier New', mono; font-size: 16px; fill: rgb(242, 245, 250); fill-opacity: 1; white-space: pre; opacity: 1;" transform="translate(0,179.15)">100</text></g><g class="ytick"><text text-anchor="end" x="69" y="5.6" style="font-family: Hack, 'Courier New', mono; font-size: 16px; fill: rgb(242, 245, 250); fill-opacity: 1; white-space: pre; opacity: 1;" transform="translate(0,130.99)">120</text></g><g class="ytick"><text text-anchor="end" x="69" y="5.6" style="font-family: Hack, 'Courier New', mono; font-size: 16px; fill: rgb(242, 245, 250); fill-opacity: 1; white-space: pre; opacity: 1;" transform="translate(0,82.82)">140</text></g></g><g class="overaxes-above"/></g></g><g class="polarlayer"/><g class="smithlayer"/><g class="ternarylayer"/><g class="geolayer"/><g class="funnelarealayer"/><g class="pielayer"/><g class="iciclelayer"/><g class="treemaplayer"/><g class="sunburstlayer"/><g class="glimages"/><defs id="topdefs-267daf"><g class="clips"/></defs><g class="layer-above"><g class="imagelayer"/><g class="shapelayer"/></g><g class="infolayer"><g class="g-gtitle"/><g class="g-xtitle" transform="translate(0,0.19999999999998863)"><text class="xtitle" x="350" y="468.8" text-anchor="middle" style="opacity: 1; font-family: Hack, 'Courier New', mono; font-size: 19px; fill: rgb(242, 245, 250); fill-opacity: 1; white-space: pre;">Post date</text></g><g class="g-ytitle"><text class="ytitle" transform="rotate(-90,28.94375,240)" x="28.94375" y="240" text-anchor="middle" style="opacity: 1; font-family: Hack, 'Courier New', mono; font-size: 19px; fill: rgb(242, 245, 250); fill-opacity: 1; white-space: pre;">Mentions</text></g></g></svg>