<svg class="main-svg" xmlns="http://www.w3.org/2000/svg" xmlns:xlink="http://www.w3.org/1999/xlink" width="700" height="500" style="" viewBox="0 0 700 500"><rect x="0" y="0" width="700" height="500" style="fill: rgb(17, 17, 17); fill-opacity: 1;"/><defs id="defs-b4db2c"><g class="clips"><clipPath id="clipb4db2cxyplot" class="plotclip"><rect width="530" height="360"/></clipPath><clipPath class="axesclip" id="clipb4db2cx"><rect x="90" y="0" width="530" height="500"/></clipPath><clipPath class="axesclip" id="clipb4db2cy"><rect x="0" y="60" width="700" height="360"/></clipPath><clipPath class="axesclip" id="clipb4db2cxy"><rect x="90" y="60" width="530" height="360"/></clipPath></g><g class="gradients"/><g class="patterns"/></defs><g class="bglayer"/><g class="layer-below"><g class="imagelayer"/><g class="shapelayer"/></g><g class="cartesianlayer"><g class="subplot xy"><g class="layer-subplot"><g class="shapelayer"/><g class="imagelayer"/></g><g class="minor-gridlayer"><g class="x"/><g class="y"/></g><g class="gridlayer"><g class="x"><path class="xgrid crisp" transform="translate(146.65,0)" d="M0,60v360" style="stroke: rgb(40, 52, 66); stroke-opacity: 1; stroke-width: 1px;"/><path class="xgrid crisp" transform="translate(283.06,0)" d="M0,60v360" style="stroke: rgb(40, 52, 66); stroke-opacity: 1; stroke-width: 1px;"/><path class="xgrid crisp" transform="translate(419.66,0)" d="M0,60v360" style="stroke: rgb(40, 52, 66); stroke-opacity: 1; stroke-width: 1px;"/><path class="xgrid crisp" transform="translate(556.0699999999999,0)" d="M0,60v360" style="stroke: rgb(40, 52, 66); stroke-opacity: 1; stroke-width: 1px;"/></g><g class="y"><path class="ygrid crisp" transform="translate(0,365.5)" d="M90,0h530" style="stroke: rgb(40, 52, 66); stroke-opacity: 1; stroke-width: 1px;"/><path class="ygrid crisp" transform="translate(0,311)" d="M90,0h530" style="stroke: rgb(40, 52, 66); stroke-opacity: 1; stroke-width: 1px;"/><path class="ygrid crisp" transform="translate(0,256.49)" d="M90,0h530" style="stroke: rgb(40, 52, 66); stroke-opacity: 1; stroke-width: 1px;"/><path class="ygrid crisp" transform="translate(0,201.99)" d="M90,0h530" style="stroke: rgb(40, 52, 66); stroke-opacity: 1; stroke-width: 1px;"/><path class="ygrid crisp" transform="translate(0,147.49)" d="M90,0h530" style="stroke: rgb(40, 52, 66); stroke-opacity: 1; stroke-width: 1px;"/><path class="ygrid crisp" transform="translate(0,92.99000000000001)" d="M90,0h530" style="stroke: rgb(40, 52, 66); stroke-opacity: 1; stroke-width: 1px;"/></g></g><g class="zerolinelayer"><path class="yzl zl crisp" transform="translate(0,420)" d="M90,0h530" style="stroke: rgb(40, 52, 66); stroke-opacity: 1; stroke-width: 2px;"/></g><g class="layer-between"><g class="shapelayer"/><g class="imagelayer"/></g><path class="xlines-below"/><path class="ylines-below"/><g class="overlines-below"/><g class="xaxislayer-below"/><g class="yaxislayer-below"/><g class="overaxes-below"/><g class="overplot"><g class="xy" transform="translate(90,60)" clip-path="url(#clipb4db2cxyplot)"><g class="scatterlayer mlayer"><g class="trace scatter tracef8fe7f" style="stroke-miterlimit: 2;"><g class="fills"><g><path class="js-fill" d="M530,360L0,360L0,360L0.75,354.55L1.54,354.55L16.48,353.9L17.23,353.68L26.31,352.97L26.81,352.91L42.57,350.79L43.31,350.14L46.86,349.32L47.04,348.5L47.81,348.23L48.49,348.23L55.4,347.52L55.6,347.41L60.27,347.03L60.84,344.19L69.98,340.11L70.73,339.4L79.92,336.46L79.92,334.93L82.12,334.22L82.51,333.78L89.04,331.77L89.62,331.44L93.54,330.51L94.31,330.51L97.48,326.32L98.24,326.26L101.41,325.61L102.15,324.57L102.72,323.48L103.46,323.37L105.33,321.79L106.1,321.58L110,321.09L110.58,320.21L111.88,319.29L112.64,318.63L113.2,318.58L113.55,315.85L115.17,315.58L115.73,314.76L122.32,312.26L123.09,310.95L127.03,308.39L127.58,308.33L128.34,308.33L128.88,307.41L130.21,305.5L130.95,304.95L133.58,303.7L134.13,302.94L136.2,301.68L139.35,300.97L145.32,298.03L145.85,296.89L147.18,296.56L147.96,295.09L152.44,289.2L153.2,288.87L154.5,280.7L155.04,279.34L158.39,278.63L158.99,278.47L161.02,278.25L161.59,276.23L162.92,275.14L163.65,274.92L166.28,273.67L166.8,273.51L169.44,269.2L170.2,268.93L170.66,268.71L171.45,267.18L179.94,265L180.69,264.08L182,262.33L182.57,262.06L183.87,261.84L184.63,258.79L185.94,250.18L186.49,249.2L187.26,249.2L187.82,248.27L189.14,246.8L189.88,246.36L192.52,241.51L193.08,240.8L196.99,240.75L197.75,239.33L199.44,238.19L200.39,238.13L205.78,231.54L206.92,231.48L208.17,227.72L208.61,226.63L210.02,223.36L212.14,223.04L213.45,221.73L213.99,221.46L216.05,219.98L216.62,219L220.55,218.19L221.29,216.99L223.15,214.97L223.92,207.23L225.79,207.18L226.56,205.81L227.1,205.81L227.84,204.61L229.17,203.31L229.7,202.54L230.47,201.94L232.32,201.56L234.93,200.31L235.16,199.87L235.3,199.49L238.85,199.11L240.17,198.46L240.93,197.04L242.22,194.37L242.78,193.88L246.73,191.7L247.46,191.21L248.75,189.74L250.65,188.26L252.7,186.41L253.27,185.43L256.64,185.1L257.18,183.52L259.26,181.56L259.84,181.56L265.77,179.98L266.37,172.24L268.42,172.08L268.96,170.28L269.73,170.22L270.29,169.03L271.6,167.72L273.78,167.72L274.2,162.7L274.96,162.7L278.87,156L278.87,153.6L280.69,152.73L282.77,150.06L284.09,148.21L284.61,148.15L289.88,146.62L290.65,145.97L291.86,144.77L293.17,144.06L294.36,142.16L297.67,142.05L298.47,141.88L299.01,140.9L299.78,140.25L300.35,138.18L304.24,136.76L305.02,135.4L305.53,135.18L306.3,131.69L307.6,131.26L309.51,130.93L311.59,128.26L312.89,127.66L317.33,126.19L318.11,125.64L320.72,124.01L321.3,123.68L322.06,119.54L323.87,119.1L325.95,118.56L326.5,117.96L328.59,116.76L329.12,113.65L332.47,108.8L333.03,105.04L333.79,97.63L335.1,97.35L339.6,93.65L340.34,92.61L342.79,91.9L342.97,90.76L343.9,88.25L345.58,87.76L346.15,86.62L348.17,85.75L348.73,85.47L349.47,84L350.04,83.13L351.22,82.97L351.22,82.42L352.53,82.15L352.53,80.68L352.53,80.68L358.27,80.51L364.4,78.44L365.17,77.41L375.64,74.52L376.18,71.58L376.93,67.11L378.81,67.05L383.48,63.78L385.36,63.29L386.67,62.42L387.39,61.87L388.74,60.62L389.32,59.8L392.64,58.77L393.2,58.33L402.34,57.79L403.1,57.57L404.4,56.81L406.3,55.88L408.91,53.59L408.91,50.48L410.97,49.72L411.52,49.45L417.5,47.38L420.13,46.67L431.85,43.78L432.39,42.74L442.91,42.58L442.91,41.82L445.51,40.95L446.29,39.47L453.3,38.82L454.07,38.6L458.04,38.55L458.6,37.78L461.25,36.64L464.54,36.42L464.54,35L464.54,35L472.42,34.68L474.3,33.7L475.04,30.04L484.16,28.95L484.16,28.95L485.44,27.81L490.72,26.28L492.03,26.12L494.67,25.9L495.77,24.7L495.95,24.21L497.28,24.1L507.92,21.98L507.92,21.98L508.3,21.98L516.9,21.32L518.23,20.02L518.23,19.14L519.51,18.76L530,18" style="fill: rgb(99, 110, 250); fill-opacity: 0.5; stroke-width: 0;"/></g></g><g class="errorbars"/><g class="lines"><path class="js-line" d="M0,360L0.75,354.55L1.54,354.55L16.48,353.9L17.23,353.68L26.31,352.97L26.81,352.91L42.57,350.79L43.31,350.14L46.86,349.32L47.04,348.5L47.81,348.23L48.49,348.23L55.4,347.52L55.6,347.41L60.27,347.03L60.84,344.19L69.98,340.11L70.73,339.4L79.92,336.46L79.92,334.93L82.12,334.22L82.51,333.78L89.04,331.77L89.62,331.44L93.54,330.51L94.31,330.51L97.48,326.32L98.24,326.26L101.41,325.61L102.15,324.57L102.72,323.48L103.46,323.37L105.33,321.79L106.1,321.58L110,321.09L110.58,320.21L111.88,319.29L112.64,318.63L113.2,318.58L113.55,315.85L115.17,315.58L115.73,314.76L122.32,312.26L123.09,310.95L127.03,308.39L127.58,308.33L128.34,308.33L128.88,307.41L130.21,305.5L130.95,304.95L133.58,303.7L134.13,302.94L136.2,301.68L139.35,300.97L145.32,298.03L145.85,296.89L147.18,296.56L147.96,295.09L152.44,289.2L153.2,288.87L154.5,280.7L155.04,279.34L158.39,278.63L158.99,278.47L161.02,278.25L161.59,276.23L162.92,275.14L163.65,274.92L166.28,273.67L166.8,273.51L169.44,269.2L170.2,268.93L170.66,268.71L171.45,267.18L179.94,265L180.69,264.08L182,262.33L182.57,262.06L183.87,261.84L184.63,258.79L185.94,250.18L186.49,249.2L187.26,249.2L187.82,248.27L189.14,246.8L189.88,246.36L192.52,241.51L193.08,240.8L196.99,240.75L197.75,239.33L199.44,238.19L200.39,238.13L205.78,231.54L206.92,231.48L208.17,227.72L208.61,226.63L210.02,223.36L212.14,223.04L213.45,221.73L213.99,221.46L216.05,219.98L216.62,219L220.55,218.19L221.29,216.99L223.15,214.97L223.92,207.23L225.79,207.18L226.56,205.81L227.1,205.81L227.84,204.61L229.17,203.31L229.7,202.54L230.47,201.94L232.32,201.56L234.93,200.31L235.16,199.87L235.3,199.49L238.85,199.11L240.17,198.46L240.93,197.04L242.22,194.37L242.78,193.88L246.73,191.7L247.46,191.21L248.75,189.74L250.65,188.26L252.7,186.41L253.27,185.43L256.64,185.1L257.18,183.52L259.26,181.56L259.84,181.56L265.77,179.98L266.37,172.24L268.42,172.08L268.96,170.28L269.73,170.22L270.29,169.03L271.6,167.72L273.78,167.72L274.2,162.7L274.96,162.7L278.87,156L278.87,153.6L280.69,152.73L282.77,150.06L284.09,148.21L284.61,148.15L289.88,146.62L290.65,145.97L291.86,144.77L293.17,144.06L294.36,142.16L297.67,142.05L298.47,141.88L299.01,140.9L299.78,140.25L300.35,138.18L304.24,136.76L305.02,135.4L305.53,135.18L306.3,131.69L307.6,131.26L309.51,130.93L311.59,128.26L312.89,127.66L317.33,126.19L318.11,125.64L320.72,124.01L321.3,123.68L322.06,119.54L323.87,119.1L325.95,118.56L326.5,117.96L328.59,116.76L329.12,113.65L332.47,108.8L333.03,105.04L333.79,97.63L335.1,97.35L339.6,93.65L340.34,92.61L342.79,91.9L342.97,90.76L343.9,88.25L345.58,87.76L346.15,86.62L348.17,85.75L348.73,85.47L349.47,84L350.04,83.13L351.22,82.97L351.22,82.42L352.53,82.15L352.53,80.68L352.53,80.68L358.27,80.51L364.4,78.44L365.17,77.41L375.64,74.52L376.18,71.58L376.93,67.11L378.81,67.05L383.48,63.78L385.36,63.29L386.67,62.42L387.39,61.87L388.74,60.62L389.32,59.8L392.64,58.77L393.2,58.33L402.34,57.79L403.1,57.57L404.4,56.81L406.3,55.88L408.91,53.59L408.91,50.48L410.97,49.72L411.52,49.45L417.5,47.38L420.13,46.67L431.85,43.78L432.39,42.74L442.91,42.58L442.91,41.82L445.51,40.95L446.29,39.47L453.3,38.82L454.07,38.6L458.04,38.55L458.6,37.78L461.25,36.64L464.54,36.42L464.54,35L464.54,35L472.42,34.68L474.3,33.7L475.04,30.04L484.16,28.95L484.16,28.95L485.44,27.81L490.72,26.28L492.03,26.12L494.67,25.9L495.77,24.7L495.95,24.21L497.28,24.1L507.92,21.98L507.92,21.98L508.3,21.98L516.9,21.32L518.23,20.02L518.23,19.14L519.51,18.76L530,18" style="vector-effect: none; fill: none; stroke: rgb(99, 110, 250); stroke-opacity: 1; stroke-width: 2px; opacity: 1;"/></g><g class="points"/><g class="text"/></g></g></g></g><path class="xlines-above crisp" d="M0,0" style="fill: none;"/><path class="ylines-above crisp" d="M0,0" style="fill: none;"/><g class="overlines-above"/><g class="xaxislayer-above"><g class="xtick"><text text-anchor="middle" x="0" y="447" transform="translate(146.65,0)" style="font-family: Hack, 'Courier New', mono; font-size: 16px; fill: rgb(242, 245, 250); fill-opacity: 1; white-space: pre; opacity: 1;">2018</text></g><g class="xtick"><text text-anchor="middle" x="0" y="447" style="font-family: Hack, 'Courier New', mono; font-size: 16px; fill: rgb(242, 245, 250); fill-opacity: 1; white-space: pre; opacity: 1;" transform="translate(283.06,0)">2020</text></g><g class="xtick"><text text-anchor="middle" x="0" y="447" style="font-family: Hack, 'Courier New', mono; font-size: 16px; fill: rgb(242, 245, 250); fill-opacity: 1; white-space: pre; opacity: 1;" transform="translate(419.66,0)">2022</text></g><g class="xtick"><text text-anchor="middle" x="0" y="447" style="font-family: Hack, 'Courier New', mono; font-size: 16px; fill: rgb(242, 245, 250); fill-opacity: 1; white-space: pre; opacity: 1;" transform="translate(556.0699999999999,0)">2024</text></g></g><g class="yaxislayer-above"><g class="ytick"><text text-anchor="end" x="79" y="5.6" transform="translate(0,420)" style="font-family: Hack, 'Courier New', mono; font-size: 16px; fill: rgb(242, 245, 250); fill-opacity: 1; white-space: pre; opacity: 1;">0</text></g><g class="ytick"><text text-anchor="end" x="79" y="5.6" style="font-family: Hack, 'Courier New', mono; font-size: 16px; fill: rgb(242, 245, 250); fill-opacity: 1; white-space: pre; opacity: 1;" transform="translate(0,365.5)">1000</text></g><g class="ytick"><text text-anchor="end" x="79" y="5.6" style="font-family: Hack, 'Courier New', mono; font-size: 16px; fill: rgb(242, 245, 250); fill-opacity: 1; white-space: pre; opacity: 1;" transform="translate(0,311)">2000</text></g><g class="ytick"><text text-anchor="end" x="79" y="5.6" style="font-family: Hack, 'Courier New', mono; font-size: 16px; fill: rgb(242, 245, 250); fill-opacity: 1; white-space: pre; opacity: 1;" transform="translate(0,256.49)">3000</text></g><g class="ytick"><text text-anchor="end" x="79" y="5.6" style="font-family: Hack, 'Courier New', mono; font-size: 16px; fill: rgb(242, 245, 250); fill-opacity: 1; white-space: pre; opacity: 1;" transform="translate(0,201.99)">4000</text></g><g class="ytick"><text text-anchor="end" x="79" y="5.6" style="font-family: Hack, 'Courier New', mono; font-size: 16px; fill: rgb(242, 245, 250); fill-opacity: 1; white-space: pre; opacity: 1;" transform="translate(0,147.49)">5000</text></g><g class="ytick"><text text-anchor="end" x="79" y="5.6" style="font-family: Hack, 'Courier New', mono; font-size: 16px; fill: rgb(242, 245, 250); fill-opacity: 1; white-space: pre; opacity: 1;" transform="translate(0,92.99000000000001)">6000</text></g></g><g class="overaxes-above"/></g></g><g class="polarlayer"/><g class="smithlayer"/><g class="ternarylayer"/><g class="geolayer"/><g class="funnelarealayer"/><g class="pielayer"/><g class="iciclelayer"/><g class="treemaplayer"/><g class="sunburstlayer"/><g class="glimages"/><defs id="topdefs-b4db2c"><g class="clips"/></defs><g class="layer-above"><g class="imagelayer"/><g class="shapelayer"/></g><g class="infolayer"><g class="g-gtitle"/><g class="g-xtitle" transform="translate(0,0.19999999999998863)"><text class="xtitle" x="355" y="468.8" text-anchor="middle" style="opacity: 1; font-family: Hack, 'Courier New', mono; font-size: 19px; fill: rgb(242, 245, 250); fill-opacity: 1; white-space: pre;">Post date</text></g><g class="g-ytitle"><text class="ytitle" transform="rotate(-90,29.31875,240)" x="29.31875" y="240" text-anchor="middle" style="opacity: 1; font-family: Hack, 'Courier New', mono; font-size: 19px; fill: rgb(242, 245, 250); fill-opacity: 1; white-space: pre;">Total Mentions</text></g></g></svg>