<svg class="main-svg" xmlns="http://www.w3.org/2000/svg" xmlns:xlink="http://www.w3.org/1999/xlink" width="700" height="500" style="" viewBox="0 0 700 500"><rect x="0" y="0" width="700" height="500" style="fill: rgb(17, 17, 17); fill-opacity: 1;"/><defs id="defs-8fe0e4"><g class="clips"><clipPath id="clip8fe0e4xyplot" class="plotclip"><rect width="540" height="360"/></clipPath><clipPath class="axesclip" id="clip8fe0e4x"><rect x="80" y="0" width="540" height="500"/></clipPath><clipPath class="axesclip" id="clip8fe0e4y"><rect x="0" y="60" width="700" height="360"/></clipPath><clipPath class="axesclip" id="clip8fe0e4xy"><rect x="80" y="60" width="540" height="360"/></clipPath></g><g class="gradients"/><g class="patterns"/></defs><g class="bglayer"/><g class="layer-below"><g class="imagelayer"/><g class="shapelayer"/></g><g class="cartesianlayer"><g class="subplot xy"><g class="layer-subplot"><g class="shapelayer"/><g class="imagelayer"/></g><g class="minor-gridlayer"><g class="x"/><g class="y"/></g><g class="gridlayer"><g class="x"><path class="xgrid crisp" transform="translate(137.72,0)" d="M0,60v360" style="stroke: rgb(40, 52, 66); stroke-opacity: 1; stroke-width: 1px;"/><path class="xgrid crisp" transform="translate(276.7,0)" d="M0,60v360" style="stroke: rgb(40, 52, 66); stroke-opacity: 1; stroke-width: 1px;"/><path class="xgrid crisp" transform="translate(415.88,0)" d="M0,60v360" style="stroke: rgb(40, 52, 66); stroke-opacity: 1; stroke-width: 1px;"/><path class="xgrid crisp" transform="translate(554.86,0)" d="M0,60v360" style="stroke: rgb(40, 52, 66); stroke-opacity: 1; stroke-width: 1px;"/></g><g class="y"><path class="ygrid crisp" transform="translate(0,371.34)" d="M80,0h540" style="stroke: rgb(40, 52, 66); stroke-opacity: 1; stroke-width: 1px;"/><path class="ygrid crisp" transform="translate(0,322.68)" d="M80,0h540" style="stroke: rgb(40, 52, 66); stroke-opacity: 1; stroke-width: 1px;"/><path class="ygrid crisp" transform="translate(0,274.02)" d="M80,0h540" style="stroke: rgb(40, 52, 66); stroke-opacity: 1; stroke-width: 1px;"/><path class="ygrid crisp" transform="translate(0,225.35)" d="M80,0h540" style="stroke: rgb(40, 52, 66); stroke-opacity: 1; stroke-width: 1px;"/><path class="ygrid crisp" transform="translate(0,176.69)" d="M80,0h540" style="stroke: rgb(40, 52, 66); stroke-opacity: 1; stroke-width: 1px;"/><path class="ygrid crisp" transform="translate(0,128.03)" d="M80,0h540" style="stroke: rgb(40, 52, 66); stroke-opacity: 1; stroke-width: 1px;"/><path class="ygrid crisp" transform="translate(0,79.37)" d="M80,0h540" style="stroke: rgb(40, 52, 66); stroke-opacity: 1; stroke-width: 1px;"/></g></g><g class="zerolinelayer"><path class="yzl zl crisp" transform="translate(0,420)" d="M80,0h540" style="stroke: rgb(40, 52, 66); stroke-opacity: 1; stroke-width: 2px;"/></g><g class="layer-between"><g class="shapelayer"/><g class="imagelayer"/></g><path class="xlines-below"/><path class="ylines-below"/><g class="overlines-below"/><g class="xaxislayer-below"/><g class="yaxislayer-below"/><g class="overaxes-below"/><g class="overplot"><g class="xy" transform="translate(80,60)" clip-path="url(#clip8fe0e4xyplot)"><g class="scatterlayer mlayer"><g class="trace scatter tracebb16fc" style="stroke-miterlimit: 2;"><g class="fills"><g><path class="js-fill" d="M540,360L0,360L0,359.89L0.2,349.1L0.77,349.01L7.47,347.25L7.63,347.09L10.87,344.72L11.47,344.47L16.23,341.92L16.8,341.67L22.81,338.92L23.31,338.63L31.37,335.55L32.14,335.29L32.64,334.42L33.46,334.12L44.7,329.24L45,328.97L52.06,325.11L52.64,324.86L61.4,321.06L61.98,320.71L69.02,317.15L69.4,316.85L76.06,313.47L76.64,313.17L85.39,308.75L85.98,308.47L89.42,306.91L89.98,306.63L97.41,302.87L98,302.49L114.77,294.26L115.33,293.89L119.26,291.28L120.03,290.94L125.98,287.03L126.75,286.68L126.87,286.56L128.66,286.1L138.77,279.52L141.97,279.06L146.71,275.91L147.27,275.33L156.09,268.86L156.61,268.19L161.99,264.15L164.06,263.61L169.95,258.93L170.74,258.44L177.42,252.53L177.99,252.01L182,250.77L182.75,250.33L196.72,239.65L200.13,239.27L213.99,226.39L216.14,225.85L220.71,221.28L221.47,220.71L222.05,220.06L224.13,219.43L228.14,216L230.05,215.37L234.81,211.12L236.7,210.59L239.36,208.2L239.59,207.86L239.74,207.64L243.36,207.12L246.79,204.33L247.36,203.88L250.04,202.49L250.81,201.83L253.44,199.37L255.38,198.59L259.36,195.12L261.48,194.42L264.74,191L268.12,190.35L271.4,187.16L273.49,186.39L276.72,182.99L278.95,182.23L280.69,180.88L281.48,180.15L284.13,178.46L285.41,177.75L285.98,177.17L288.1,176.49L289.98,174.73L291.32,174.03L292.66,172.82L294.77,172.2L298.71,168.92L299.31,168.35L299.92,167.95L303.29,167.21L304.65,165.59L305.43,164.75L307.34,162.77L309.44,162.02L313.4,158.43L315.35,157.71L319.33,154.11L321.98,153.4L324.66,150.34L326.78,149.57L328.13,147.95L329.98,147.21L334.79,143.25L335.33,142.78L339.32,141.34L340.09,140.54L344.13,138.12L344.68,137.4L346.76,135.18L348.67,134.27L349.82,132.9L350.03,132.39L350.39,131.65L352.1,130.84L352.68,130.07L354.74,129.04L356.65,126.15L357.85,125.75L357.85,124.72L359.18,124.28L359.18,123.09L365.03,122.4L368,120.53L369.95,119.9L372.61,117.18L373.4,116.34L373.95,115.71L376.05,115.01L381.38,112.53L381.95,111.82L384.04,109.71L385.95,108.95L390.71,103.97L392.63,103.15L395.3,100.82L396.07,100.04L396.67,98.98L398.73,98.17L401.39,95.74L401.95,95.22L404.05,92.23L408.61,91.29L412.03,87.79L413.97,87.08L416.62,86.16L416.62,85.27L417.96,84.32L418.72,83.44L420.03,82.13L421.95,81.58L425.38,78.62L428.05,77.26L435.26,75.67L435.45,75.42L437.01,73.79L439.23,73.28L442.71,69.09L451.27,68.16L451.27,67.2L452.56,66.7L454.71,64.03L457.91,63.98L461.3,62.26L461.86,61.75L462.64,60.82L466.68,59.9L468.57,57.19L469.95,56.33L469.95,55.69L473.3,55.07L473.3,52.75L481.33,51.94L484,48.71L484.58,48.47L488.02,46.88L488.6,46.29L489.91,45.19L490.68,44.4L493.29,43.27L494.6,42.24L497.3,40.95L498.65,39.69L501.32,37.84L504,37.17L505.13,36.9L505.31,35.82L509.34,33.3L510.86,32.24L515.43,29.97L515.63,29.72L515.98,29.25L517.31,29.13L518.65,27.86L521.32,27.41L522.66,26.71L526.65,26.11L528.01,25.51L528.01,24.62L530.65,22.68L531.96,22.67L535.26,20.57L535.96,19.83L538.65,19.18L540,18" style="fill: rgb(99, 110, 250); fill-opacity: 0.5; stroke-width: 0;"/></g></g><g class="errorbars"/><g class="lines"><path class="js-line" d="M0,359.89L0.2,349.1L0.77,349.01L7.47,347.25L7.63,347.09L10.87,344.72L11.47,344.47L16.23,341.92L16.8,341.67L22.81,338.92L23.31,338.63L31.37,335.55L32.14,335.29L32.64,334.42L33.46,334.12L44.7,329.24L45,328.97L52.06,325.11L52.64,324.86L61.4,321.06L61.98,320.71L69.02,317.15L69.4,316.85L76.06,313.47L76.64,313.17L85.39,308.75L85.98,308.47L89.42,306.91L89.98,306.63L97.41,302.87L98,302.49L114.77,294.26L115.33,293.89L119.26,291.28L120.03,290.94L125.98,287.03L126.75,286.68L126.87,286.56L128.66,286.1L138.77,279.52L141.97,279.06L146.71,275.91L147.27,275.33L156.09,268.86L156.61,268.19L161.99,264.15L164.06,263.61L169.95,258.93L170.74,258.44L177.42,252.53L177.99,252.01L182,250.77L182.75,250.33L196.72,239.65L200.13,239.27L213.99,226.39L216.14,225.85L220.71,221.28L221.47,220.71L222.05,220.06L224.13,219.43L228.14,216L230.05,215.37L234.81,211.12L236.7,210.59L239.36,208.2L239.59,207.86L239.74,207.64L243.36,207.12L246.79,204.33L247.36,203.88L250.04,202.49L250.81,201.83L253.44,199.37L255.38,198.59L259.36,195.12L261.48,194.42L264.74,191L268.12,190.35L271.4,187.16L273.49,186.39L276.72,182.99L278.95,182.23L280.69,180.88L281.48,180.15L284.13,178.46L285.41,177.75L285.98,177.17L288.1,176.49L289.98,174.73L291.32,174.03L292.66,172.82L294.77,172.2L298.71,168.92L299.31,168.35L299.92,167.95L303.29,167.21L304.65,165.59L305.43,164.75L307.34,162.77L309.44,162.02L313.4,158.43L315.35,157.71L319.33,154.11L321.98,153.4L324.66,150.34L326.78,149.57L328.13,147.95L329.98,147.21L334.79,143.25L335.33,142.78L339.32,141.34L340.09,140.54L344.13,138.12L344.68,137.4L346.76,135.18L348.67,134.27L349.82,132.9L350.03,132.39L350.39,131.65L352.1,130.84L352.68,130.07L354.74,129.04L356.65,126.15L357.85,125.75L357.85,124.72L359.18,124.28L359.18,123.09L365.03,122.4L368,120.53L369.95,119.9L372.61,117.18L373.4,116.34L373.95,115.71L376.05,115.01L381.38,112.53L381.95,111.82L384.04,109.71L385.95,108.95L390.71,103.97L392.63,103.15L395.3,100.82L396.07,100.04L396.67,98.98L398.73,98.17L401.39,95.74L401.95,95.22L404.05,92.23L408.61,91.29L412.03,87.79L413.97,87.08L416.62,86.16L416.62,85.27L417.96,84.32L418.72,83.44L420.03,82.13L421.95,81.58L425.38,78.62L428.05,77.26L435.26,75.67L435.45,75.42L437.01,73.79L439.23,73.28L442.71,69.09L451.27,68.16L451.27,67.2L452.56,66.7L454.71,64.03L457.91,63.98L461.3,62.26L461.86,61.75L462.64,60.82L466.68,59.9L468.57,57.19L469.95,56.33L469.95,55.69L473.3,55.07L473.3,52.75L481.33,51.94L484,48.71L484.58,48.47L488.02,46.88L488.6,46.29L489.91,45.19L490.68,44.4L493.29,43.27L494.6,42.24L497.3,40.95L498.65,39.69L501.32,37.84L504,37.17L505.13,36.9L505.31,35.82L509.34,33.3L510.86,32.24L515.43,29.97L515.63,29.72L515.98,29.25L517.31,29.13L518.65,27.86L521.32,27.41L522.66,26.71L526.65,26.11L528.01,25.51L528.01,24.62L530.65,22.68L531.96,22.67L535.26,20.57L535.96,19.83L538.65,19.18L540,18" style="vector-effect: none; fill: none; stroke: rgb(99, 110, 250); stroke-opacity: 1; stroke-width: 2px; opacity: 1;"/></g><g class="points"/><g class="text"/></g></g></g></g><path class="xlines-above crisp" d="M0,0" style="fill: none;"/><path class="ylines-above crisp" d="M0,0" style="fill: none;"/><g class="overlines-above"/><g class="xaxislayer-above"><g class="xtick"><text text-anchor="middle" x="0" y="447" transform="translate(137.72,0)" style="font-family: Hack, 'Courier New', mono; font-size: 16px; fill: rgb(242, 245, 250); fill-opacity: 1; white-space: pre; opacity: 1;">2018</text></g><g class="xtick"><text text-anchor="middle" x="0" y="447" style="font-family: Hack, 'Courier New', mono; font-size: 16px; fill: rgb(242, 245, 250); fill-opacity: 1; white-space: pre; opacity: 1;" transform="translate(276.7,0)">2020</text></g><g class="xtick"><text text-anchor="middle" x="0" y="447" style="font-family: Hack, 'Courier New', mono; font-size: 16px; fill: rgb(242, 245, 250); fill-opacity: 1; white-space: pre; opacity: 1;" transform="translate(415.88,0)">2022</text></g><g class="xtick"><text text-anchor="middle" x="0" y="447" style="font-family: Hack, 'Courier New', mono; font-size: 16px; fill: rgb(242, 245, 250); fill-opacity: 1; white-space: pre; opacity: 1;" transform="translate(554.86,0)">2024</text></g></g><g class="yaxislayer-above"><g class="ytick"><text text-anchor="end" x="69" y="5.6" transform="translate(0,420)" style="font-family: Hack, 'Courier New', mono; font-size: 16px; fill: rgb(242, 245, 250); fill-opacity: 1; white-space: pre; opacity: 1;">0</text></g><g class="ytick"><text text-anchor="end" x="69" y="5.6" style="font-family: Hack, 'Courier New', mono; font-size: 16px; fill: rgb(242, 245, 250); fill-opacity: 1; white-space: pre; opacity: 1;" transform="translate(0,371.34)">2M</text></g><g class="ytick"><text text-anchor="end" x="69" y="5.6" style="font-family: Hack, 'Courier New', mono; font-size: 16px; fill: rgb(242, 245, 250); fill-opacity: 1; white-space: pre; opacity: 1;" transform="translate(0,322.68)">4M</text></g><g class="ytick"><text text-anchor="end" x="69" y="5.6" style="font-family: Hack, 'Courier New', mono; font-size: 16px; fill: rgb(242, 245, 250); fill-opacity: 1; white-space: pre; opacity: 1;" transform="translate(0,274.02)">6M</text></g><g class="ytick"><text text-anchor="end" x="69" y="5.6" style="font-family: Hack, 'Courier New', mono; font-size: 16px; fill: rgb(242, 245, 250); fill-opacity: 1; white-space: pre; opacity: 1;" transform="translate(0,225.35)">8M</text></g><g class="ytick"><text text-anchor="end" x="69" y="5.6" style="font-family: Hack, 'Courier New', mono; font-size: 16px; fill: rgb(242, 245, 250); fill-opacity: 1; white-space: pre; opacity: 1;" transform="translate(0,176.69)">10M</text></g><g class="ytick"><text text-anchor="end" x="69" y="5.6" style="font-family: Hack, 'Courier New', mono; font-size: 16px; fill: rgb(242, 245, 250); fill-opacity: 1; white-space: pre; opacity: 1;" transform="translate(0,128.03)">12M</text></g><g class="ytick"><text text-anchor="end" x="69" y="5.6" style="font-family: Hack, 'Courier New', mono; font-size: 16px; fill: rgb(242, 245, 250); fill-opacity: 1; white-space: pre; opacity: 1;" transform="translate(0,79.37)">14M</text></g></g><g class="overaxes-above"/></g></g><g class="polarlayer"/><g class="smithlayer"/><g class="ternarylayer"/><g class="geolayer"/><g class="funnelarealayer"/><g class="pielayer"/><g class="iciclelayer"/><g class="treemaplayer"/><g class="sunburstlayer"/><g class="glimages"/><defs id="topdefs-8fe0e4"><g class="clips"/></defs><g class="layer-above"><g class="imagelayer"/><g class="shapelayer"/></g><g class="infolayer"><g class="g-gtitle"/><g class="g-xtitle" transform="translate(0,0.19999999999998863)"><text class="xtitle" x="350" y="468.8" text-anchor="middle" style="opacity: 1; font-family: Hack, 'Courier New', mono; font-size: 19px; fill: rgb(242, 245, 250); fill-opacity: 1; white-space: pre;">Post Date</text></g><g class="g-ytitle"><text class="ytitle" transform="rotate(-90,28.94375,240)" x="28.94375" y="240" text-anchor="middle" style="opacity: 1; font-family: Hack, 'Courier New', mono; font-size: 19px; fill: rgb(242, 245, 250); fill-opacity: 1; white-space: pre;">Total Word Count</text></g></g></svg>